<svg xmlns="http://www.w3.org/2000/svg" width="57.706" height="69.67" viewBox="0 0 57.706 69.67"><g fill="#0072ba"><path fill-rule="evenodd" clip-rule="evenodd" d="M34.154 58.469v2.195h3.245c.308 0 .62-.244.62-1.11 0-.867-.281-1.085-.65-1.085h-3.215zm0 5.605v2.197h3.245c.308 0 .62-.246.62-1.114 0-.867-.281-1.083-.65-1.083h-3.215zm5.996-9.098l2.66 2.66v3.341l-1.392 1.513 1.453 1.484v3.121l-2.574 2.574h-10.808v-14.693h10.661z"/><path d="M0 57.761l2.785-2.785h8.44l2.598 2.6v4.729h-4.454v-2.873c0-.216-.216-.961-.835-.961h-2.987c-.215 0-.806.189-.806.961v6.089s.127.752.9.752l2.782-.001c.321.001.884-.224.884-.999v-1.084h4.512v2.907l-2.594 2.575h-8.409l-2.816-2.576v-9.334zM15.086 57.575l2.566-2.601h7.942l2.626 2.627v3.003h-4.478v-1.297c0-.278-.095-.84-1.085-.84h-2.162c-.248 0-.895.16-.895.901v.896l8.62 2.286v4.544l-2.626 2.574h-7.942l-2.574-2.574v-2.901h4.522v1.326c0 .216.176.741.916.741h2.598s.628-.09.628-.772v-.928l-8.656-2.256v-4.729z"/><path fill-rule="evenodd" clip-rule="evenodd" d="M48.89 58.476v3.211h3.072c.278 0 1.163.157 1.163-1.577 0-1.846-.701-1.634-1.132-1.634h-3.103zm-4.721-3.5h10.475l2.912 2.6.028 4.729-2.8 2.812-5.889-.005v4.558h-4.727v-14.694z"/><path d="M.171 0v8.293h15.35l9.102 9.274v30.493l2.946-.001v-38.375l-9.662-9.683zM.174 9.277l-.003 8.236 11.65-.008 7.624 7.361v23.208h2.962l-.002-30.376-8.397-8.421zM.174 18.49v7.407l7.495-.002 6.592 6.187v15.993l2.967-.007v-23.579l-6.327-5.999zM.174 26.804l-.003 8.111 4.598.002 4.223 4.182-.001 8.975h2.979l.007-16.239-5.594-5.031zM57.706.001v8.293h-15.352l-9.101 9.275v30.493h-2.945v-38.378l9.661-9.682zM57.702 9.278l.004 8.237-11.652-.008-7.624 7.36v23.208h-2.961v-30.376l8.4-8.421zM57.702 18.491l-.004 7.405-7.493.001-6.591 6.187v15.99l-2.966-.003v-23.58l6.327-6zM57.702 26.805l.004 8.111-4.601.002-4.221 4.184.001 8.972-2.98.002-.007-16.239 5.593-5.032z"/></g></svg>