<svg xmlns="http://www.w3.org/2000/svg" width="310" height="79" viewBox="0 0 310 79" fill="none"><g clip-path="url(#clip0_104_2439)"><path d="M249.492 60.5924L259.034 30.275L265.324 58.458L275.458 44.384L277.903 54.1099L310 54.593L283.758 49.0702L279.204 30.0093L268.487 39.0691L260.986 0L243.419 52.9382H49.5591C48.6029 55.7834 47.5123 58.32 46.3369 60.5924H249.492Z" fill="#77C043"></path><path d="M46.3371 60.5928C39.4065 73.9925 29.4775 77.9797 25.9639 79.0079H296.998L301.127 60.5928H46.3371Z" fill="#30318A"></path><path d="M49.1826 8.89402C54.4182 8.89402 58.1204 8.28439 60.622 8.28439C63.827 8.28439 65.3113 10.1135 65.173 13.3359C65.0349 16.5583 62.627 19.8658 59.9695 19.8658C57.5268 19.8658 54.6067 17.0031 52.9048 24.8287L44.6984 49.2548C42.7446 54.9636 36.3292 74.1866 16.9576 76.0066C3.88958 77.2343 -1.50666 69.7685 0.358422 58.1666C1.94052 48.3251 8.6397 40.0602 16.3769 40.0602C22.0627 40.0602 25.0256 44.4085 24.8352 48.8504C24.5962 54.4232 21.0783 58.0816 17.5583 58.0816C14.4329 58.0816 14.0049 55.2952 13.5371 55.2952C13.1456 55.2952 12.6012 56.2674 12.4291 57.3831C11.8335 61.2432 15.0244 64.3255 18.2295 64.3255C22.8412 64.3255 29.3112 57.5825 32.2337 48.1585C39.0653 26.1298 39.9407 23.8727 40.0602 21.0853C40.0938 20.3018 39.5042 19.4297 38.5653 19.4297C36.9261 19.4297 35.0074 20.3868 32.5852 20.3868C30.0837 20.3868 28.5999 18.4726 28.7044 16.0336C28.9098 11.2444 32.4045 8.19922 38.1111 8.19922C39.362 8.19922 42.849 8.89402 49.1826 8.89402Z" fill="#30318A"></path><path d="M84.7893 16.8427C86.4366 41.6665 86.2186 41.5842 86.9694 41.5842C87.3982 41.5842 88.2258 41.1584 89.2271 41.1584C92.4249 41.1584 91.5958 48.5922 86.4301 48.5922C84.9048 48.5922 83.1703 47.9026 80.6435 47.9026C78.0216 47.9026 75.9957 48.4863 74.6605 48.4863C69.8534 48.4863 72.4407 41.4243 75.6794 41.4243C76.597 41.4243 77.6089 42.0013 77.6542 40.9466C77.6565 40.8926 77.677 40.4148 77.6397 40.1512C77.4709 37.0066 77.6383 36.911 76.492 36.911C69.0229 36.911 68.2132 36.56 67.6234 38.0804C67.2 39.0358 66.5817 40.1512 66.5612 40.6288C66.5362 41.2125 66.8055 41.5842 67.378 41.5842C68.2134 41.5842 70.8064 40.5644 70.6716 43.707C70.5554 46.4154 68.9878 48.4863 66.1757 48.4863C65.0307 48.4863 62.531 47.9026 59.6219 47.9026C57.5259 47.9026 55.591 48.5381 53.8269 48.5381C52.6352 48.5381 51.8366 47.159 51.8935 45.8318C51.9937 43.4951 53.5639 41.3184 55.2329 41.3184C55.8054 41.3184 56.3203 41.5302 56.7492 41.5302C57.5448 41.5302 56.8137 42.5564 70.9143 15.7792C72.423 12.9143 72.246 11.4258 78.299 11.4258C84.5441 11.4258 84.4404 11.5859 84.7893 16.8427ZM72.4195 28.4698C71.6545 30.0291 71.4098 30.2749 72.7244 30.2749C76.2614 30.2749 77.2011 30.3776 77.2169 30.0089C77.2526 29.1763 77.2772 33.0776 77.0183 19.0713L72.4195 28.4698Z" fill="#30318A"></path><path d="M108.785 12.2752C115.438 12.2752 115.916 10.3471 116.736 14.7179L120.757 36.5391C124.319 19.9573 124.318 20.1921 124.339 19.7089C124.366 19.0712 123.953 18.6995 123.429 18.6995C122.562 18.6995 119.422 19.8627 119.568 16.4708C119.675 13.9742 121.243 11.8516 124.057 11.8516C125.153 11.8516 126.753 12.3293 129.28 12.3293C132.711 12.3293 134.971 11.8516 135.877 11.8516C140.382 11.8516 138.419 19.0194 135.331 19.0194C134.807 19.0194 133.773 18.6995 133.296 18.6995C132.104 18.6995 132.072 19.4431 131.774 20.8243L127.136 42.2738C126.126 46.9471 124.962 48.538 122.864 48.538H117.286C114.586 48.538 114.888 46.8608 110.536 22.5752C108.596 31.4488 106.689 40.0189 106.665 40.5748C106.599 42.1203 108.135 41.4243 109.345 41.4243C113.304 41.4243 111.699 48.4862 107.232 48.4862C105.848 48.4862 103.443 47.9025 100.583 47.9025C98.4384 47.9025 96.123 48.538 94.9295 48.538C90.5255 48.538 92.202 41.2643 95.8139 41.2643C96.504 41.2643 98.4905 42.1069 98.7947 40.6807C100.093 34.5879 99.3468 38.5202 102.948 21.6738C103.218 20.4097 103.769 18.7535 102.5 18.7535C101.784 18.7535 100.758 19.3372 99.8534 19.3372C95.5847 19.3372 96.9467 11.8516 101.795 11.8516C103.749 11.8516 105.351 12.2752 108.785 12.2752Z" fill="#30318A"></path><path d="M151.418 12.2752C157.345 12.2752 163.787 11.0416 167.909 13.4446C179.073 19.9541 171.966 48.538 153.772 48.538C150.77 48.538 147.554 47.9025 144.313 47.9025C140.928 47.9025 138.662 48.538 137.565 48.538C133.221 48.538 134.978 41.2643 138.162 41.2643C142.116 41.2643 140.382 45.6537 145.759 20.8762C145.817 20.6103 145.99 19.9208 145.999 19.7089C146.031 18.9653 145.468 18.7535 145.087 18.7535C144.371 18.7535 143.444 19.283 142.538 19.283C138.411 19.283 139.413 11.8516 144.716 11.8516C146.383 11.8516 148.321 12.2752 151.418 12.2752ZM150.307 40.4148C150.261 41.4783 151.58 41.8501 153.296 41.8501C159.256 41.8501 163.382 34.5224 163.705 26.9827C163.935 21.6198 162.061 18.6476 158.058 18.6476C155.387 18.6476 154.844 19.178 154.245 21.9397C150.489 39.2596 150.341 39.6261 150.307 40.4148Z" fill="#30318A"></path><path d="M201.369 15.4618C201.629 12.7533 202.59 11.4261 205.307 11.4261C206.642 11.4261 207.939 12.3297 207.864 14.0805C207.809 15.3559 206.804 18.0145 206.218 20.241C205.938 21.3045 205.795 22.3096 205.683 23.745C205.418 26.6653 204.032 28.9479 201.028 28.9479C198.788 28.9479 197.651 27.6726 197.724 25.9736C197.781 24.6464 198.339 23.8509 198.384 22.7896C198.485 20.4529 196.752 18.5939 193.464 18.5939C190.701 18.5939 188.477 20.3988 186.843 24.0087C185.216 27.5667 184.334 31.3905 184.199 34.5227C183.997 39.2479 185.804 41.6365 189.662 41.6365C193.287 41.6365 194.406 40.2643 196.283 36.2217C197.98 32.5656 203.405 33.5255 203.209 38.0807C203.057 41.6365 198.305 49.0701 189.153 49.0701C179.908 49.0701 174.792 43.8672 175.195 34.4686C175.625 24.4394 182.072 11.1602 192.828 11.1602C196.977 11.1602 200.103 12.7533 201.369 15.4618Z" fill="#30318A"></path><path d="M237.912 26.2397C237.762 29.7437 236.98 33.4037 235.44 37.2833C232.428 44.8694 226.779 49.0704 219.347 49.0704C210.621 49.0704 205.834 44.0275 206.242 34.523C206.394 30.9649 207.165 27.3547 208.619 23.5313C211.465 16.0448 216.725 11.2686 224.923 11.2686C233.834 11.2686 238.322 16.6833 237.912 26.2397ZM219.949 41.6368C223.19 41.6368 225.467 39.6719 226.783 35.6902C229.124 28.6042 231.091 18.6482 224.319 18.6482C222.27 18.6482 220.763 19.3963 219.559 20.771C217.412 23.2214 215.426 30.4354 215.203 35.6383C215.03 39.6719 216.708 41.6368 219.949 41.6368Z" fill="#30318A"></path><path d="M104.195 70.7291H99.0608V73.0613H104.77L104.513 75.0529H96.8281V64.8047H104.473V66.7963H99.0608V68.7375H104.195V70.7291Z" fill="white"></path><path d="M113.113 64.8047H115.345V73.0596H120.495L120.203 75.0529H113.113V64.8047Z" fill="white"></path><path d="M135.787 70.7291H130.653V73.0613H136.361L136.105 75.0529H128.42V64.8047H136.065V66.7963H130.653V68.7375H135.787V70.7291Z" fill="white"></path><path d="M153.662 71.7992C153.236 73.5982 151.954 75.2711 149.067 75.2711C145.779 75.2711 144.193 72.7381 144.193 69.9391C144.193 67.1395 145.941 64.5869 149.186 64.5869C152.004 64.5869 153.41 66.3321 153.678 68.0459H151.418C151.23 67.4594 150.732 66.5163 149.162 66.5163C147.441 66.5163 146.547 67.9753 146.547 69.846C146.547 71.7328 147.364 73.3547 149.175 73.3547C150.484 73.3547 151.059 72.7884 151.417 71.7992H153.662Z" fill="white"></path><path d="M164.487 66.785H161.249V64.8047H169.949V66.785H166.722V75.0529H164.487V66.785Z" fill="white"></path><path d="M180.283 71.1035V75.0529H178.072V64.8047H183.083C185.204 64.8047 186.419 65.9705 186.419 67.7323C186.419 69.0556 185.729 69.8346 184.818 70.1563C185.195 70.3215 186.182 70.7244 186.182 72.5654V73.0773C186.182 73.7799 186.17 74.5689 186.298 75.0529H184.007C183.852 74.6022 183.834 73.996 183.834 72.9079V72.572C183.834 71.5359 183.493 71.1035 182.152 71.1035H180.283ZM180.283 69.2387H182.583C183.667 69.2387 184.138 68.8033 184.138 67.939C184.138 67.1292 183.656 66.6701 182.603 66.6701H180.283V69.2387Z" fill="white"></path><path d="M197.22 64.8047H194.987V75.0529H197.22V64.8047Z" fill="white"></path><path d="M215.303 71.7992C214.877 73.5982 213.595 75.2711 210.707 75.2711C207.42 75.2711 205.833 72.7381 205.833 69.9391C205.833 67.1395 207.581 64.5869 210.827 64.5869C213.645 64.5869 215.051 66.3321 215.319 68.0459H213.059C212.869 67.4594 212.373 66.5163 210.803 66.5163C209.082 66.5163 208.187 67.9753 208.187 69.846C208.187 71.7328 209.004 73.3547 210.815 73.3547C212.124 73.3547 212.699 72.7884 213.058 71.7992H215.303Z" fill="white"></path><path d="M225.125 71.9826C225.389 72.867 226.024 73.4487 227.551 73.4487C228.981 73.4487 229.394 72.9623 229.394 72.3013C229.394 71.5946 228.97 71.1964 227.032 70.8304C223.839 70.222 223.258 69.0669 223.258 67.6925C223.258 65.6458 225.027 64.5996 227.202 64.5996C230.36 64.5996 231.216 66.4083 231.322 67.5989H229.085C228.955 67.0918 228.649 66.4124 227.132 66.4124C226.067 66.4124 225.529 66.7891 225.529 67.4514C225.529 68.0438 225.908 68.3417 227.635 68.6865C231.13 69.3856 231.678 70.5608 231.678 72.0471C231.678 73.8237 230.426 75.2591 227.34 75.2591C224.462 75.2591 223.165 73.8285 222.887 71.9826H225.125Z" fill="white"></path><path d="M256.364 70.8236H253.312V72.6299H256.678L256.515 73.8898H251.973V66.7812H256.498V68.0407H253.312V69.5642H256.364V70.8236Z" fill="white"></path><path d="M263.278 71.6988C263.021 73.0246 262.123 73.9908 260.525 73.9908C258.501 73.9908 257.545 72.3954 257.545 70.373C257.545 68.4241 258.532 66.6777 260.591 66.6777C262.291 66.6777 263.114 67.789 263.271 68.9774H261.89C261.757 68.4295 261.415 67.8833 260.548 67.8833C259.41 67.8833 258.97 69.0236 258.97 70.3173C258.97 71.5193 259.351 72.7852 260.584 72.7852C261.485 72.7852 261.769 72.1135 261.889 71.6988H263.278Z" fill="white"></path><path d="M265.287 73.8897V68.8165C265.004 68.9622 264.489 69.082 264.185 69.1116V68.0098C264.762 67.8912 265.347 67.5252 265.695 67.0986H266.631V73.8897H265.287Z" fill="white"></path><path d="M270.676 73.89V72.3652H267.921V71.0792L270.463 67.1055H271.906V71.1709H272.641L272.518 72.3652H271.906V73.89H270.676ZM270.676 69.9631C270.676 69.228 270.677 68.818 270.702 68.3915C270.461 68.959 269.667 70.2516 269.094 71.1709H270.676V69.9631Z" fill="white"></path><path d="M277.32 67.1055V68.2008C276.354 69.722 275.41 71.9233 275.17 73.89H273.808C274.048 71.8942 275.139 69.5017 275.97 68.3187H273.103V67.1055H277.32Z" fill="white"></path><path d="M278.044 71.938C278.044 71.0719 278.589 70.5411 279.041 70.3142C278.573 69.9914 278.289 69.585 278.289 68.8966C278.289 67.7444 279.045 66.9814 280.416 66.9814C281.669 66.9814 282.493 67.7083 282.493 68.8771C282.493 69.6585 282.133 70.0405 281.717 70.239C282.156 70.4203 282.71 70.9919 282.71 71.8906C282.71 73.2897 281.706 74.0137 280.317 74.0137C279.072 74.0137 278.044 73.2809 278.044 71.938ZM281.387 71.8722C281.387 71.1999 280.971 70.8894 280.378 70.8894C279.715 70.8894 279.376 71.2887 279.376 71.8633C279.376 72.4657 279.781 72.8662 280.401 72.8662C280.972 72.8662 281.387 72.5635 281.387 71.8722ZM279.546 68.947C279.546 69.406 279.841 69.7136 280.399 69.7136C280.94 69.7136 281.235 69.4819 281.235 68.9523C281.235 68.4387 280.931 68.1194 280.388 68.1194C279.83 68.1194 279.546 68.4108 279.546 68.947Z" fill="white"></path><path d="M288.246 70.4552C288.246 72.3206 287.714 74.0137 285.905 74.0137C284.117 74.0137 283.565 72.3769 283.565 70.4973C283.565 68.6377 284.178 66.9814 285.932 66.9814C287.631 66.9814 288.246 68.5288 288.246 70.4552ZM284.931 70.4807C284.931 71.7276 285.059 72.8378 285.922 72.8378C286.762 72.8378 286.872 71.7999 286.872 70.4641C286.872 69.1467 286.73 68.1574 285.933 68.1574C285.156 68.1574 284.931 69.0116 284.931 70.4807Z" fill="white"></path></g><defs><clipPath id="clip0_104_2439"><rect width="310" height="79.0075" fill="white"></rect></clipPath></defs></svg>